<svg version="1.0" xmlns="http://www.w3.org/2000/svg" width="338.667" height="94.667" viewBox="0 0 254 71"><path d="M22.7.6C21.3 2.1 22.1 4 24.1 4c1.4 0 1.9-.5 1.7-1.7-.3-1.8-2-2.7-3.1-1.7zM20 6c0 .5.5 1 1 1 .6 0 1 1.2 1 2.7 0 1.6.5 3.5 1 4.3.9 1.3 1.1 1.3 2 0 .5-.8 1-2.7 1-4.3 0-1.5.5-2.7 1-2.7.6 0 1-.5 1-1 0-.6-1.8-1-4-1s-4 .4-4 1zm18 4.7c-6.4 3.8-10.6 5.7-13 5.7-2.6.1-3.6.6-3.8 2-.2 1 .2 2.3 1 2.8.9.7.8.8-.6.4-1-.4-3.3.3-5.2 1.5-4.6 2.8-4.3 3.6.3.9 2.3-1.4 3.9-1.8 4.1-1.1.5 1.4 6.2 1.5 6.2.1 0-.6-.5-1-1.1-1-2 0 2-4.3 6.1-6.6 2.3-1.3 4.3-2.4 4.5-2.4.1 0 0 1.1-.2 2.4-.7 3.3 3 6.9 6 6.1 5.1-1.6 6.3-7.2 2.1-10.2l-2.6-2 3.1-1.2c1.7-.8 3.1-1.7 3.1-2.2 0-1.2.8-1.6-10 4.8zM2.4 19.5c-2 3.1-1.2 7.1 1.6 8 2.8.9 2.5 1.8-1.1 3.4-1.6.7-2.8 1.6-2.5 1.8.3.3 3-.9 6.1-2.8 4.8-2.9 5.5-3.7 5.5-6.5 0-5.9-6.5-8.6-9.6-3.9zm100.3-1.8c27.7.2 72.9.2 100.5 0 27.7-.1 5.1-.2-50.2-.2-55.3 0-77.9.1-50.3.2z"/><path d="M19.3 25.2c-.2.5 1.9.8 4.8.8s4.9-.3 4.6-.6c-.9-1-8.8-1-9.4-.2zm35.5 2.5C56.9 29.1 57 30 57 40.2c0 10.1-.2 11-2 11.5-1.1.3-2 1-2 1.5 0 .6.7.7 1.6.4.9-.3 6.9-.6 13.5-.6H80v-2.8c-.1-2.3-.2-2.4-1.1-1-.8 1.4-2.4 1.8-7.4 1.8H65V40.1c0-10.1.2-11 2.3-12.4 2.1-1.5 1.7-1.6-6.3-1.6s-8.4.1-6.2 1.6zm5.1 12.5c-.1 6.2-.2 6.8-1 3.8-.7-3.1-.2-11 .7-11 .2 0 .4 3.3.3 7.2zm3.3 2.6c-1 4.7-1 4.7-1-2.8 0-6.2.1-7 1-4.7.7 1.9.7 4.4 0 7.5zM87.8 28c1.9 1.8 2.2 3.1 2.2 10.8 0 10-.7 13.2-2.6 13.2-.8 0-1.4.5-1.4 1.1 0 .6.7.8 1.6.5.9-.3 6.7-.6 13-.6H112l-.1-4.8c0-3.6-.2-4.2-.9-2.6-1.3 3.3-5 5.4-9.2 5.4H98v-5c0-5.8 1.6-6.6 4.9-2.4l2.1 2.7-.1-6.9c0-5.5-.2-6.5-1.1-4.8-.5 1.2-2.1 2.7-3.4 3.3-2.4 1-2.4 1-2.4-3.9v-5h4.5c4 0 4.7.4 6.5 3.2l2 3.3V26H85.6l2.2 2zM93 39.5c0 3.7-.4 6.5-1 6.5-1.1 0-1.4-11.3-.3-12.3 1.2-1.3 1.3-.7 1.3 5.8zm3 0c0 3.7-.4 6.5-1 6.5-1.1 0-1.4-8.8-.4-11.4 1.1-2.8 1.4-1.7 1.4 4.9zm29.6-11.2c-5.4 3.1-7.9 6.7-7.9 11.7 0 5.2 1.8 8.5 5.9 11 6.8 4.2 16.7 3.5 21.4-1.5 2.9-3 1.9-3.2-1.9-.4-4.2 3.1-10.6 2.8-13.9-.5-2.3-2.2-2.7-3.5-2.7-8.7 0-5.7.3-6.3 3.4-9.1 2.9-2.6 3.9-3 7.5-2.5 3 .4 4.8 1.4 6.9 3.8 3.1 3.8 3.3 3.6 1.2-1.3-1.2-2.9-2.1-3.6-5.2-4.2-6.7-1.1-10.7-.6-14.7 1.7zm-4.1 11.1c0 3.5-.3 5.9-.7 5.3-1.2-1.9-.7-11.7.6-11.7 0 0 .1 2.9.1 6.4zm3 0c0 3.5-.3 5.9-.7 5.3-1.2-1.9-.7-11.7.6-11.7 0 0 .1 2.9.1 6.4zm29.3-11.8c2 1.5 2.2 2.4 2.2 12.6 0 10.1-.2 11-2 11.5-4 1.1-1.8 1.8 5.5 1.8 4.1 0 7.5-.3 7.5-.8 0-.4-.7-.7-1.5-.7-1.1 0-1.5-1.2-1.5-5 0-2.8.4-5 .9-5s2.8 2.4 5.1 5.2c3.8 4.9 4.6 5.3 9.3 5.9 2.9.3 5.3.5 5.5.4.1-.1-2.4-2.8-5.5-5.9l-5.7-5.7 3.2-2.5c2.2-1.8 3.2-3.4 3.2-5.2 0-5.8-3.5-7.4-17.4-7.9-10.5-.4-11-.3-8.8 1.3zm17.8 3.9c1.5 2.3 1.5 2.7 0 5-1.1 1.7-2.6 2.5-4.6 2.5-2.9 0-3-.1-3-5s.1-5 3-5c2 0 3.5.8 4.6 2.5zm4.4 3c0 .8-.4 1.7-1 2-.6.4-1-.5-1-2s.4-2.4 1-2c.6.3 1 1.2 1 2zm-17 5c0 3.7-.4 6.5-1 6.5-1.1 0-1.4-8.8-.4-11.4 1.1-2.8 1.4-1.7 1.4 4.9zm2.8 4.2c-.4 3.7-.4 3.7-1.2 1-.5-1.5-.4-4.9 0-7.5l.8-4.7.4 3.7c.2 2.1.2 5.5 0 7.5zm10-.6c1.9 3.1.9 3.3-1.8.4-1.6-1.7-1.9-2.5-.9-2.5.8 0 2 .9 2.7 2.1zm17-15.4c2.1 1.4 2.2 2.3 2.2 12.5 0 10.1-.2 11-2 11.5-1.1.3-2 1-2 1.5 0 .6.7.7 1.6.4.9-.3 6.9-.6 13.5-.6H214v-4.8c-.1-4.3-.2-4.5-1.5-2.7-3.2 4.5-4.9 5.5-9.2 5.5H199v-5c0-6.2 2.8-6.9 5.8-1.5.9 1.6 1.1.7 1.1-5 0-5-.3-6.4-.9-4.8-.8 1.9-3.8 4.3-5.4 4.3-.3 0-.6-2.3-.6-5v-5h4.3c4.5 0 7.6 2.1 7.8 5.1.1 2.4 1.8-2.4 1.8-5.4l.1-2.7-13.2.1c-12.4 0-13.1.1-11 1.6zm5.1 12.5c-.1 6-.2 6.8-1 4.3-.8-2.7-.3-11.5.7-11.5.2 0 .4 3.3.3 7.2zm3.3 3.1c-.9 3.9-1 3.7-1-3.3 0-6.4.1-7 .9-4.2.6 2.1.6 4.9.1 7.5zm22.6-15.7c2 1.5 2.2 2.4 2.2 12.6 0 10.1-.2 11-2 11.5-4.6 1.2-1.4 1.8 8.2 1.5 5.7-.2 11.8-1 13.5-1.7 4.8-2 7.5-6.9 7-12.8-.8-8.8-5.6-11.8-20.6-12.4-10.1-.4-10.5-.3-8.3 1.3zm16.3 2.4c2.8 1.5 4.9 6.3 4.9 11 0 3.3-.6 4.8-2.9 7.1-1.7 1.7-4 2.9-5.5 2.9H230V40c0-10.5.1-11 2.1-11 1.1 0 2.9.5 4 1zm-11.3 13.7c-.4 3.7-.4 3.7-1.2 1-.5-1.5-.4-4.9 0-7.5l.8-4.7.4 3.7c.2 2.1.2 5.5 0 7.5zm3.3-.2l-.5 4-.6-3.6c-.3-2-.4-5.3-.1-7.5l.5-3.9.6 3.5c.3 1.9.3 5.3.1 7.5zm15.9-4c0 2.2-.4 4.5-.8 5.2-.4.6-.7-1.8-.8-5.3 0-3.6.3-5.9.8-5.2.4.7.8 3.1.8 5.3zm2.4-4.9c.9 2.4.7 8.7-.4 10.4-.7 1-.8.1-.4-3.1.4-2.7.2-5.5-.5-6.8-.7-1.1-.8-2.1-.2-2.1.5 0 1.2.7 1.5 1.6zm-224.1 8c.3 8.6.9 15.9 1.2 16.2 1.4 1.4 1.9-2 2.3-16.3l.5-15.5h-4.6l.6 15.6zm-.8 18.2c-1.3 1.3-.2 2.2 2.6 2.2 1.9 0 2.9-.4 2.7-1.2-.4-1.2-4.4-1.9-5.3-1zm33 1.8c4.6.7 128.4.9 127.2.2-.6-.4-30-.7-65.2-.6-35.2 0-63.1.2-62 .4zM184 63c0 .6 12.8 1 35.2 1 19.3 0 34.9-.2 34.7-.4-1-.9-69.9-1.5-69.9-.6zM17.5 65c-.4.6 2 1 6.5 1s6.9-.4 6.5-1c-.3-.6-3.3-1-6.5-1s-6.2.4-6.5 1zm-5.8 4.5c-.6 1.3 1.1 1.5 11.9 1.5 9.6 0 12.5-.3 12.2-1.2-.3-.9-3.9-1.4-12-1.6-9.6-.2-11.7 0-12.1 1.3z"/></svg>