<svg height="512" width="512" xmlns="http://www.w3.org/2000/svg" data-name="Layer 1"><path d="M365.95 100.63l30.64 76.5h-72.87l29.49-73.15 12.74-3.36zm-167.41 44.32l30.64 76.5h-72.87l29.59-73.42 12.58-3.31z" fill="#a5e2fb"/><path d="M113.27 17v478h-11.06a33.126 33.126 0 01-33.13-33.13V50.13A33.126 33.126 0 01102.21 17z" fill="#978cac"/><path d="M409.79 17H113v478h296.79A33.2 33.2 0 00443 461.87V50.13A33.2 33.2 0 00409.79 17z" fill="#a5e2fb"/><path d="M321.82 295.065a17.08 17.08 0 00-2.87-.065h-85a17.08 17.08 0 00-2.87.065A17.743 17.743 0 00216.48 312h119.94a17.743 17.743 0 00-14.6-16.935z" fill="#6d7486"/><path d="M317.02 177c0 25 19.48 38.46 42.98 38.46S403.28 202 403.28 177zm-167.4 44c0 25 19.47 38.46 42.97 38.46S235.88 246 235.88 221z" fill="#75967a"/><path d="M284.43 133.66l-15.76.08-.05.195L268.38 279h16.13l.01-145.065zm107.19-48.02a7.952 7.952 0 00-9.71-5.66l-215.54 56.76a7.946 7.946 0 002.02 15.63l217.57-57.02a7.958 7.958 0 005.66-9.71z" fill="#c79a83"/><path d="M297.49 118.65a21.187 21.187 0 01-13.06 17v.01A21.217 21.217 0 01255.24 116a20.222 20.222 0 01.18-2.71 21.205 21.205 0 0142.07 5.36z" fill="#4a5160"/><path d="M304.38 277h-55.87A17.324 17.324 0 00231 294.2v.75l.06.255a17.18 17.18 0 012.89-.2h85a17.781 17.781 0 012.94.2l.11-.255v-.75a17.42 17.42 0 00-17.62-17.2z" fill="#7d8595"/><path d="M93 461.87V50.13a32.761 32.761 0 0120-30.507V17h-10.79A33.2 33.2 0 0069 50.13v411.74A33.2 33.2 0 00102.21 495H113v-2.623a32.761 32.761 0 01-20-30.507z" fill="#746e84"/><g fill="#284268"><path d="M372.342 417H341.95a6 6 0 000 12h30.392a6 6 0 000-12zm-61.109 0H174.454a6 6 0 100 12h136.779a6 6 0 000-12zm61.109-44H240.088a6 6 0 100 12h132.254a6 6 0 000-12zm-197.888 12h34.916a6 6 0 000-12h-34.916a6 6 0 100 12zm232.828-214h-6.633l-26.606-66.369 13.442-3.507a13.933 13.933 0 10-7.1-26.946l-84.94 22.368a27.179 27.179 0 00-45.119 11.881l-85.478 22.508a13.948 13.948 0 107.1 26.976l3.913-1.253L152.259 215h-6.644a6.192 6.192 0 00-1.668 12.1 40.837 40.837 0 0014.506 27.489c8.729 7.265 20.853 11.293 34.138 11.293 26.834 0 46.17-15.626 48.931-38.679a6.264 6.264 0 004.353-5.982 6.188 6.188 0 00-6-6.216h-6.633l-26.692-66.428L257.4 135.3a27.932 27.932 0 005.209 4.127L262.391 271h-13.852a23.432 23.432 0 00-23.2 19.638 23.391 23.391 0 00-14.858 21.65 5.64 5.64 0 001.748 4.1 5.858 5.858 0 004.252 1.61H336.42a5.767 5.767 0 006-5.814 23.308 23.308 0 00-14.856-21.584 23.384 23.384 0 00-23.18-19.6h-13.87V139.349A27.389 27.389 0 00302.6 123.54l40.58-10.766L319.667 171h-6.644a6.054 6.054 0 00-1.668 11.857 40.742 40.742 0 0014.506 27.45c8.729 7.265 20.852 11.274 34.137 11.274 26.834 0 46.171-15.636 48.931-38.69A6.07 6.07 0 00407.282 171zm-214.691 82.459c-23.7 0-34.115-12.459-36.448-26.459h73.25c-3.039 19-19.993 26.459-36.802 26.459zM220.316 215H165.2l25.14-62.154 4.52-1.3zm-51.422-68.692a1.949 1.949 0 01-.992-3.769L249.708 121a26.818 26.818 0 00.989 3.769zM319.017 301a11.6 11.6 0 019.647 5H224.235a11.644 11.644 0 019.717-5zm-14.608-18h.048c4.364 0 8.162 2 10.077 6h-76.165c1.918-4 5.719-6 10.1-6h55.943zm-30.018-12l.212-127.792c.611.041 1.225.038 1.846.038.7 0 1.385.012 2.068-.04V271zm2.058-139.785a15.211 15.211 0 1115.208-15.21 15.226 15.226 0 01-15.208 15.21zm26.729-20.268a26.815 26.815 0 00-1-3.767l81.258-21.4a1.949 1.949 0 01.992 3.769zm54.476-2l4.7-1.269L387.723 171h-55.117zM360 209.459c-23.7 0-34.114-13.459-36.448-26.459H396.8c-3.039 18-19.989 26.459-36.8 26.459z"/><path d="M409.873 11H102.127A39.127 39.127 0 0063 50.127v411.746A39.127 39.127 0 00102.127 501h307.746A39.127 39.127 0 00449 461.873V50.127A39.127 39.127 0 00409.873 11zM107 489h-4.791A27.228 27.228 0 0175 461.873V50.127A27.228 27.228 0 01102.209 23H107zm330-27.127A27.228 27.228 0 01409.791 489H119V23h290.791A27.228 27.228 0 01437 50.127z"/><path d="M139 48.388a6 6 0 006-6v-4.295a6 6 0 00-12 0v4.295a6 6 0 006 6zm6 97v-82a6 6 0 00-12 0v82a6 6 0 1012 0z"/></g></svg>