<svg height="512" viewBox="0 0 64 64" width="512" xmlns="http://www.w3.org/2000/svg"><path d="M57 53v6a2.006 2.006 0 01-2 2H25a2.006 2.006 0 01-2-2v-5.61l.34-.39zm-4-29v4h-6v-4zm0 11v4h-6v-4h5zm-10 0v4h-6v-4h5zm0-11v4h-6v-4zM33 35v4h-6v-4h5zm0-11v4h-6v-4zm5 4h4v7h-4zm-10 0h4v7h-4zm20 0h4v7h-4zM27 39h27v4H30.91a3.65 3.65 0 00-.78-2.34 3.6 3.6 0 00-4.13-1.1V39zm26-18v3H27v-3l13-6zM23 5a2.006 2.006 0 012-2h30a2.006 2.006 0 012 2v2H23z" fill="#78b9eb"/><path d="M55 2H25a3.009 3.009 0 00-3 3v17.5L2.4 37.2a1.014 1.014 0 00-.4.8v18a1 1 0 00.45.83L5 58.54V61a1 1 0 001 1h14a1 1 0 001-1v-3.78l1-1.15V59a3.009 3.009 0 003 3h30a3.009 3.009 0 003-3V5a3.009 3.009 0 00-3-3zM22.01 53H22v.01l-2.76 3.18a1.048 1.048 0 00-.24.66V60H7v-2a1 1 0 00-.45-.83L4 55.46V38.5L22 25v7.59l-3.71 3.7a1.028 1.028 0 00-.24 1.03l2 6a1 1 0 00.64.63.979.979 0 00.89-.14l4.23-3.02a2.6 2.6 0 013.54.5 2.556 2.556 0 01.57 1.61 2.633 2.633 0 01-.64 1.71zM22 35.41v5.65l-.48.34-1.38-4.13zM37 29v5a1 1 0 00-1 1v3h-2v-3a1 1 0 00-1-1v-5a1 1 0 001-1v-3h2v3a1 1 0 001 1zm16 11v2H31.81a4.5 4.5 0 00-.9-1.96c-.01-.02-.03-.03-.04-.04zM38 27v-2h4v2zm3 2v5h-2v-5zm1 7v2h-4v-2zm5-7v5a1 1 0 00-1 1v3h-2v-3a1 1 0 00-1-1v-5a1 1 0 001-1v-3h2v3a1 1 0 001 1zm1-2v-2h4v2zm3 2v5h-2v-5zm1 7v2h-4v-2zm0-13H28v-1.36l12-5.54 12 5.54zm-20 2v2h-4v-2zm-1 4v5h-2v-5zm1 7v2h-4v-2zm24 23a1 1 0 01-1 1H25a1 1 0 01-1-1v-5h32zm0-7H25.52l5.27-6.08a4.509 4.509 0 00.98-1.92H54a1 1 0 001-1v-4a1 1 0 00-1-1v-3a1 1 0 00-1-1v-5a1 1 0 001-1v-7a1.016 1.016 0 00-.58-.91l-13-6a1.025 1.025 0 00-.84 0l-13 6A1.016 1.016 0 0026 21v7a1 1 0 001 1v5a1 1 0 00-1 1v3a.993.993 0 00-.99.96 2.6 2.6 0 00-.36.21l-.65.46V8h32zm0-46H24V5a1 1 0 011-1h30a1 1 0 011 1z" fill="#006df0"/><path d="M38 56h4v2h-4zm1-37h2v2h-2z" fill="#006df0"/></svg>