<svg xmlns="http://www.w3.org/2000/svg" viewBox="0 0 512 512"><path d="M480 85.333v277.333c-.035 11.767-9.566 21.298-21.333 21.333H53.333c-11.767-.035-21.298-9.566-21.333-21.333V53.333h448v32z" fill="#87d2f3"/><path d="M234.667 437.333h42.667v64h-42.667v-64zM501.333 10.667v42.667H10.667V10.667h490.666zM320 288h106.667v42.667H320V288z" fill="#fff"/><g fill="#2170a6"><path d="M501.333 0H10.667C4.776 0 0 4.776 0 10.667v42.667C0 59.224 4.776 64 10.667 64h490.667C507.224 64 512 59.224 512 53.333V10.667C512 4.776 507.224 0 501.333 0zm-10.666 42.667H21.333V21.333h469.333v21.334zm-21.334 320c0 5.891-4.776 10.667-10.667 10.667H53.333c-5.891 0-10.667-4.776-10.667-10.667V85.333H21.333v277.333c0 17.673 14.327 32 32 32h192v32h-10.667c-5.891 0-10.667 4.776-10.667 10.667v64c0 5.891 4.776 10.667 10.667 10.667h42.667c5.891 0 10.667-4.776 10.667-10.667v-64c0-5.891-4.776-10.667-10.667-10.667h-10.667v-32h192c17.673 0 32-14.327 32-32V85.333h-21.333v277.334zm-202.666 128h-21.333V448h21.333v42.667z"/><path d="M234.667 160a10.67 10.67 0 00-7.541 3.125L109.792 280.459l15.083 15.083 114.208-114.208h91.584a10.67 10.67 0 007.541-3.125L384 132.416v38.251h21.333v-64c0-5.891-4.776-10.667-10.667-10.667H320v21.333h48.917L326.251 160h-91.584zM320 320v21.333h106.667c5.891 0 10.667-4.776 10.667-10.667V288c0-5.891-4.776-10.667-10.667-10.667H320v21.333h96V320h-96zm-42.667-42.667h21.333v21.333h-21.333v-21.333zm-42.666 0H256v21.333h-21.333v-21.333zM181.333 320h117.333v21.333H181.333V320z"/></g></svg>