<svg height="512" viewBox="0 0 64 64" width="512" xmlns="http://www.w3.org/2000/svg"><path d="M43 21a8 8 0 007.95 8H51v22.75L50 53l-4-5-4 5-4-5-4 5-4-5-4 5-5-5v9a4 4 0 01-8 0V7a3.995 3.995 0 00-4-4h38a4 4 0 014 4v6a8 8 0 00-8 8z" fill="#78b9eb"/><g fill="#006df0"><path d="M53 23a1 1 0 00-1-1h-2a3 3 0 010-6v-1h2v1a3.009 3.009 0 013 3h-2a1 1 0 00-1-1h-2a1 1 0 000 2h2a3 3 0 010 6v1h-2v-1a3.009 3.009 0 01-3-3h2a1 1 0 001 1h2a1 1 0 001-1z"/><path d="M54.71 47.29a1.031 1.031 0 00-.77-.29.994.994 0 00-.72.38L52 48.9V29.94a9 9 0 000-17.88V7a5 5 0 00-5-5H9a5 5 0 00-5 5v13a.987.987 0 00.62.92A.838.838 0 005 21a1.007 1.007 0 00.71-.29L8 18.41l2.29 2.3a1.008 1.008 0 001.42 0l.29-.3V57a5 5 0 005 5h38a5 5 0 005-5v-4a1.033 1.033 0 00-.29-.71zM51 14a7 7 0 11-7 7 7.008 7.008 0 017-7zm-39 3.59l-1 1-2.29-2.3a1.014 1.014 0 00-1.42 0L6 17.59V7a3 3 0 016 0zm8.62 29.49A.987.987 0 0020 48v9a3 3 0 01-6 0V7a4.924 4.924 0 00-1.03-3H47a3.009 3.009 0 013 3v5.06a9 9 0 000 17.88V51.4l-3.22-4.02a1.025 1.025 0 00-1.56 0L42 51.4l-3.22-4.02a1.025 1.025 0 00-1.56 0L34 51.4l-3.22-4.02a1.025 1.025 0 00-1.56 0l-3.3 4.12-4.21-4.21a1 1 0 00-1.09-.21zM58 57a3.009 3.009 0 01-3 3H20.97A4.924 4.924 0 0022 57v-6.59l3.29 3.3a1.031 1.031 0 00.77.29.994.994 0 00.72-.38L30 49.6l3.22 4.02a1.025 1.025 0 001.56 0L38 49.6l3.22 4.02a1.025 1.025 0 001.56 0L46 49.6l3.22 4.02a1.025 1.025 0 001.56 0l3.3-4.12L58 53.41z"/><path d="M19 14h6v2h-6zm0-6h26v2H19zm8 6h14v2H27zm-8 6h9v2h-9zm11 0h11v2H30zm-11 6h6v2h-6zm8 0h14v2H27zm-8 6h9v2h-9zm11 0h11v2H30zm-11 6h26v2H19z"/></g></svg>